<svg width="24" height="24" viewBox="0 0 24 24" fill="none" xmlns="http://www.w3.org/2000/svg">
<path fill-rule="evenodd" clip-rule="evenodd" d="M4 4C1.79086 4 0 5.79086 0 8V16C0 18.2091 1.79086 20 4 20H20C22.2091 20 24 18.2091 24 16V8C24 5.79086 22.2091 4 20 4H4ZM16.4047 14.0678C17.0874 13.7491 17.7176 13.3558 18.297 12.8987C19.6808 13.8074 20.8813 15.0062 21.8248 16.416C22.1249 16.8643 22.03 17.4892 21.6129 17.8117C21.1957 18.1342 20.6143 18.0322 20.3142 17.5839C19.3112 16.0853 17.9673 14.8697 16.4047 14.0678ZM7.59534 14.0678C6.91264 13.7491 6.28241 13.3558 5.70302 12.8987C4.3192 13.8074 3.11875 15.0062 2.17519 16.416C1.87512 16.8643 1.97002 17.4892 2.38715 17.8117C2.80428 18.1342 3.38569 18.0322 3.68576 17.5839C4.68878 16.0853 6.03275 14.8697 7.59534 14.0678ZM2.38613 6.06854C2.90058 5.86763 3.48048 6.1218 3.68139 6.63625C5.18213 10.4791 7.87105 13 12 13C16.129 13 18.8179 10.4791 20.3187 6.63625C20.5196 6.1218 21.0995 5.86763 21.6139 6.06854C22.1284 6.26944 22.3825 6.84935 22.1816 7.3638C20.4821 11.7157 17.199 15 12 15C6.80107 15 3.51795 11.7157 1.81841 7.3638C1.61751 6.84935 1.87168 6.26944 2.38613 6.06854Z" fill="white"/>
</svg>
