<svg width="21" height="20" viewBox="0 0 21 20" fill="none" xmlns="http://www.w3.org/2000/svg">
<path fill-rule="evenodd" clip-rule="evenodd" d="M12.9416 5.79662H3.95599C3.19251 5.79662 2.57359 6.34298 2.57359 7.01695V14.9492C2.57359 15.6231 3.19251 16.1695 3.95599 16.1695H12.9416C13.705 16.1695 14.324 15.6231 14.324 14.9492V7.01695C14.324 6.34298 13.705 5.79662 12.9416 5.79662ZM4.64719 3.96611C2.35676 3.96611 0.5 5.6052 0.5 7.62712V14.339C0.5 16.3609 2.35676 18 4.64719 18H12.2504C14.5408 18 16.3976 16.3609 16.3976 14.339V7.62712C16.3976 5.6052 14.5408 3.96611 12.2504 3.96611H4.64719Z" fill="#FDFDFE"/>
<path fill-rule="evenodd" clip-rule="evenodd" d="M9.8026 0.266065L19.1289 0.000485121C19.7012 -0.0158124 20.1801 0.380536 20.1986 0.885754L20.4994 9.11876C20.5179 9.62397 20.0689 10.0467 19.4966 10.063C18.9243 10.0793 18.4454 9.68299 18.4269 9.17777L18.2068 3.15324L9.55076 11.3039C9.55076 11.3039 8.79437 11.8983 8.03799 11.3039C7.28161 10.7096 8.03799 10.052 8.03799 10.052L16.694 1.90128L9.86945 2.09562C9.29714 2.11192 8.81823 1.71557 8.79976 1.21035C8.7813 0.705134 9.23029 0.282363 9.8026 0.266065Z" fill="#FDFDFE"/>
</svg>
