<svg width="24" height="24" viewBox="0 0 24 24" fill="none" xmlns="http://www.w3.org/2000/svg">
<path fill-rule="evenodd" clip-rule="evenodd" d="M10.6666 22.6667C10.6666 23.403 11.2636 24 12 24C12.7363 24 13.3333 23.403 13.3333 22.6667V13.3333H22.6667C23.403 13.3333 24 12.7363 24 11.9999C24 11.2636 23.403 10.6666 22.6667 10.6666H13.3333V1.33333C13.3333 0.596954 12.7363 0 12 0C11.2636 0 10.6666 0.596954 10.6666 1.33333V10.6666H1.33333C0.596954 10.6666 0 11.2636 0 11.9999C0 12.7363 0.596954 13.3333 1.33333 13.3333H10.6666V22.6667Z" fill="#9A88FF"/>
</svg>
