<svg width="25" height="24" viewBox="0 0 25 24" fill="none" xmlns="http://www.w3.org/2000/svg">
<path fill-rule="evenodd" clip-rule="evenodd" d="M24.8572 12C24.8572 18.6274 19.4846 24 12.8572 24C6.22977 24 0.857178 18.6274 0.857178 12C0.857178 5.37258 6.22977 0 12.8572 0C19.4846 0 24.8572 5.37258 24.8572 12ZM10.7519 6.69984C10.3247 6.60864 9.85239 6.56256 9.33493 6.56256H4.21716V17.4384H9.48853C9.96854 17.4394 10.4476 17.3779 10.9122 17.256C11.374 17.1341 11.7849 16.9469 12.1458 16.6925C12.5068 16.439 12.7938 16.1117 13.0069 15.7104C13.2201 15.3091 13.3266 14.8339 13.3266 14.2858C13.3266 13.6051 13.1615 13.0234 12.8313 12.5414C12.501 12.0595 12.0009 11.7216 11.3308 11.5286C11.8175 11.2954 12.1861 10.9958 12.4348 10.6301C12.6834 10.2643 12.8082 9.80736 12.8082 9.2592C12.8082 8.75136 12.7247 8.32512 12.5567 7.97952C12.3887 7.63392 12.1525 7.35744 11.8482 7.14912C11.5439 6.9408 11.1791 6.79104 10.7519 6.69984ZM10.0818 10.6598C9.80725 10.8624 9.45685 10.9642 9.03061 10.9642L6.6095 10.9661V8.42208H8.84726C9.05463 8.42112 9.26102 8.43936 9.46454 8.47488C9.66229 8.5104 9.83701 8.57376 9.98965 8.66496C10.1423 8.75616 10.2642 8.88384 10.3554 9.04608C10.4466 9.20832 10.4927 9.41664 10.4927 9.67008C10.4937 10.127 10.3564 10.4563 10.0818 10.6598ZM9.83798 15.5107C9.61813 15.5568 9.39349 15.5798 9.16791 15.5789L6.6095 15.5798V12.5942H9.21399C9.73141 12.5942 10.1481 12.7133 10.463 12.9523C10.7778 13.1904 10.9353 13.5898 10.9353 14.1475C10.9353 14.4317 10.8863 14.6659 10.7903 14.8483C10.6933 15.0307 10.5638 15.1757 10.4015 15.2822C10.2393 15.3888 10.0511 15.4646 9.83798 15.5107ZM17.7368 15.8227C17.1273 15.8227 16.6597 15.6653 16.3353 15.3504C16.0108 15.0365 15.8332 14.5286 15.8034 13.8307H21.4847C21.525 13.2211 21.4742 12.6374 21.3321 12.0787C21.19 11.52 20.9586 11.0227 20.6389 10.5859C20.3192 10.1491 19.9103 9.8016 19.413 9.5424C18.9148 9.2832 18.3311 9.1536 17.661 9.1536C17.062 9.1536 16.5157 9.26016 16.0233 9.47328C15.5308 9.6864 15.1064 9.97824 14.7513 10.3488C14.3961 10.7194 14.1215 11.1581 13.9285 11.6659C13.7356 12.1738 13.6396 12.7219 13.6396 13.3104C13.6396 13.919 13.7337 14.4778 13.9209 14.9856C14.1081 15.4934 14.3749 15.9293 14.7206 16.295C15.0661 16.6608 15.4876 16.943 15.9849 17.1408C16.4821 17.3386 17.0409 17.4374 17.6601 17.4374C18.5538 17.4374 19.3151 17.2339 19.9449 16.8278C20.5746 16.4218 21.0421 15.7469 21.3465 14.8022H19.4428C19.3717 15.0461 19.1788 15.2774 18.8639 15.4954C18.549 15.7133 18.1736 15.8227 17.7368 15.8227ZM17.5996 10.7818C18.1276 10.7818 18.5212 10.9238 18.7804 11.208C19.0386 11.4922 19.2191 11.9088 19.3218 12.456H15.8034C15.813 12.3043 15.8466 12.1315 15.9023 11.9386C15.958 11.7456 16.054 11.5632 16.1913 11.3904C16.3286 11.2176 16.5109 11.0736 16.7394 10.9565C16.9669 10.8403 17.254 10.7818 17.5996 10.7818ZM19.8287 7.11456H15.4329V8.33376H19.8287V7.11456Z" fill="white"/>
</svg>
