<svg width="25" height="24" viewBox="0 0 25 24" fill="none" xmlns="http://www.w3.org/2000/svg">
<path d="M12.8572 0C6.22971 0 0.857178 5.37253 0.857178 12C0.857178 18.6274 6.22971 24 12.8572 24C19.4846 24 24.8572 18.6274 24.8572 12C24.8571 5.37253 19.4845 0 12.8572 0ZM9.65554 17.8014H7.02082V9.2894H9.65554V17.8014ZM8.32562 8.17468C7.46515 8.17468 6.76759 7.47143 6.76759 6.60407C6.76759 5.73661 7.46525 5.03341 8.32562 5.03341C9.186 5.03341 9.88356 5.73661 9.88356 6.60407C9.88361 7.47148 9.18605 8.17468 8.32562 8.17468ZM19.5291 17.8014H16.9072V13.3333C16.9072 12.1078 16.4417 11.4238 15.4727 11.4238C14.4181 11.4238 13.8671 12.1362 13.8671 13.3333V17.8014H11.3401V9.2894H13.8671V10.4358C13.8671 10.4358 14.6273 9.02975 16.4322 9.02975C18.2371 9.02975 19.5292 10.1318 19.5292 12.4117L19.5291 17.8014Z" fill="white"/>
</svg>
