<svg width="25" height="24" viewBox="0 0 25 24" fill="none" xmlns="http://www.w3.org/2000/svg">
<path fill-rule="evenodd" clip-rule="evenodd" d="M12.8214 0C6.2055 0 0.857178 5.5 0.857178 12.3042C0.857178 17.7432 4.28403 22.3472 9.03799 23.9767C9.63236 24.0992 9.85008 23.712 9.85008 23.3862C9.85008 23.101 9.83048 22.1232 9.83048 21.1045C6.50232 21.838 5.80926 19.6378 5.80926 19.6378C5.2744 18.2118 4.48191 17.8452 4.48191 17.8452C3.39261 17.0915 4.56126 17.0915 4.56126 17.0915C5.76959 17.173 6.40363 18.3545 6.40363 18.3545C7.4731 20.2285 9.19644 19.699 9.88975 19.373C9.98869 18.5785 10.3058 18.0285 10.6426 17.723C7.98812 17.4377 5.1953 16.3785 5.1953 11.6523C5.1953 10.3078 5.6704 9.20775 6.42322 8.35225C6.30444 8.04675 5.88836 6.7835 6.54224 5.09275C6.54224 5.09275 7.55244 4.76675 9.83024 6.35575C10.8054 6.08642 11.8112 5.9494 12.8214 5.94825C13.8316 5.94825 14.8614 6.091 15.8124 6.35575C18.0904 4.76675 19.1006 5.09275 19.1006 5.09275C19.7545 6.7835 19.3382 8.04675 19.2194 8.35225C19.992 9.20775 20.4475 10.3078 20.4475 11.6523C20.4475 16.3785 17.6547 17.4172 14.9804 17.723C15.4164 18.11 15.7925 18.8433 15.7925 20.0045C15.7925 21.6545 15.7729 22.9788 15.7729 23.386C15.7729 23.712 15.9909 24.0992 16.585 23.977C21.339 22.347 24.7658 17.7432 24.7658 12.3042C24.7854 5.5 19.4175 0 12.8214 0Z" fill="white"/>
</svg>
