<svg width="24" height="24" viewBox="0 0 24 24" fill="none" xmlns="http://www.w3.org/2000/svg">
<path fill-rule="evenodd" clip-rule="evenodd" d="M12.8197 13.3783L23.4888 2.93467C24.1435 2.2938 24.1733 1.24917 23.5553 0.601426C22.9373 -0.0463178 21.9056 -0.0518869 21.2509 0.588987C21.2509 0.588987 14.6805 6.95205 13.4437 8.23116C12.2069 9.51027 11.3601 9.48147 10.1848 8.21357C9.00946 6.94566 2.81561 0.489473 2.81561 0.489473C2.19763 -0.158271 1.16591 -0.163837 0.511197 0.477037C-0.143514 1.11791 -0.173293 2.16254 0.444687 2.81028L10.5153 13.3659C11.1332 14.0136 12.165 14.0192 12.8197 13.3783ZM12.8197 23.523L23.4888 13.0793C24.1435 12.4385 24.1733 11.3938 23.5553 10.7461C22.9373 10.0983 21.9056 10.0928 21.2509 10.7336C21.2509 10.7336 14.6805 17.0967 13.4437 18.3758C12.2069 19.6549 11.3601 19.6261 10.1848 18.3582C9.00946 17.0903 2.81561 10.6341 2.81561 10.6341C2.19763 9.98639 1.16591 9.98082 0.511197 10.6217C-0.143514 11.2626 -0.173293 12.3072 0.444687 12.9549L10.5153 23.5105C11.1332 24.1583 12.165 24.1638 12.8197 23.523Z" fill="#FDFDFE"/>
</svg>
