<svg width="30" height="33" viewBox="0 0 30 33" fill="none" xmlns="http://www.w3.org/2000/svg">
<path fill-rule="evenodd" clip-rule="evenodd" d="M28.7234 19.5821L16.5455 32.1472C15.7982 32.9182 14.581 32.9525 13.8268 32.2238L1.5366 20.3486C0.782413 19.6198 0.776829 18.404 1.52412 17.633C2.27142 16.8619 3.48861 16.8276 4.2428 17.5563L13.2362 26.2461L13.1823 14.5262L13.1285 2.80622C13.1285 2.80622 13.2892 0.933639 15.166 0.832315C17.0427 0.730991 16.9733 2.69783 16.9733 2.69783L17.0271 14.4178L17.081 26.1377L25.9922 16.9432C26.7395 16.1721 27.9567 16.1378 28.7109 16.8665C29.4651 17.5953 29.4706 18.8111 28.7234 19.5821Z" fill="#FDFDFE"/>
</svg>
